<svg xmlns="http://www.w3.org/2000/svg" viewBox="0 0 596.1 100"><path fill="#fff" d="M126.31 37.46h15.5V42h-10.06v4.47h8V51h-8v8.15h-5.44zM163.68 59.13h-5.48l-1.59-4.61h-8L147 59.13h-5.48l7.7-21.67h6.9zm-11.06-17.4l-2.88 8.49h5.65zM180.21 59.13v-8.6h-8.7v8.6H166V37.46h5.51v8.42h8.7v-8.42h5.51v21.67zM195.74 59.13h-5.51V37.46h8.7c5.75 0 8.77 2.67 8.77 6.86a6.36 6.36 0 0 1-4.44 6.24l5.55 8.56h-6.21l-4.33-7.28-2.53.21zm2.67-11.23c2.36-.17 3.64-1.14 3.64-3.22 0-1.91-1.32-2.84-4.09-2.84h-2.32V48zM222.29 53.06c0-1.46-1.56-1.94-4.44-2.74-3.15-.87-7-2.32-7-6.66 0-4 2.95-6.69 8.32-6.69a16.49 16.49 0 0 1 8.11 1.91l-1.07 4.54a16.1 16.1 0 0 0-7-1.91c-1.91 0-2.84.66-2.84 1.84 0 1.42 2 2 4.58 2.7 3.33.9 6.79 2.43 6.79 6.55s-3.19 7-8.87 7a17.8 17.8 0 0 1-8.35-2l1-4.58a16.11 16.11 0 0 0 7.42 2c2 .08 3.35-.64 3.35-1.96zM247.63 43.18a10.8 10.8 0 0 0-5.48-1.56c-3.74 0-6.17 2.53-6.17 6.62s2.29 6.76 6.21 6.76a10.43 10.43 0 0 0 5.72-1.77l1.14 4.89a16.29 16.29 0 0 1-7.11 1.56c-6.93 0-11.51-4-11.51-11.27 0-7 4.54-11.44 11.68-11.44a16.7 16.7 0 0 1 7.18 1.63zM266.8 59.13v-8.6h-8.7v8.6h-5.51V37.46h5.51v8.42h8.7v-8.42h5.51v21.67zM286.21 59.64c-5.65 0-9.53-2.77-9.53-8.87V37.46h5.48V50c0 3.26 1.32 5 4.19 5 2.6 0 4-1.39 4-4.75V37.46h5.48v12.82c-.05 6.28-3.83 9.36-9.62 9.36zM300.11 59.13V37.46h5.51v17.05h9.08v4.61zM318.14 59.13V37.46H334v4.44h-10.46v4.16h8.39v4.4h-8.39v4.23H334v4.44zM353.39 59.13h-7.77V37.46h8.15c7.63 0 12 4.23 12 10.68-.04 6.65-4.44 10.99-12.38 10.99zm0-17.26h-2.29v12.85h2.57c4 0 6.48-2 6.48-6.38s-2.22-6.48-6.72-6.48zM369.23 59.13V37.46h15.84v4.44h-10.43v4.16H383v4.4h-8.39v4.23h10.44v4.44zM388.82 59.13V37.46h15.84v4.44h-10.43v4.16h8.39v4.4h-8.39v4.23h10.43v4.44zM413.95 47l7.21-9.57h6.31L418.91 48l8.77 11.09h-6.59l-7.14-9.53v9.53h-5.55V37.46h5.51V47zM430.07 59.13V37.46h15.84v4.44h-10.43v4.16h8.39v4.4h-8.39v4.23h10.43v4.44zM464.63 37.46h5.17v21.87h-5.86l-9.12-14.25v14h-5.17V37.46h6l9 14.08zM539.53 52.15s-3.76.73-4.23-.13-1-2.11-1-2.11-.4-1.06-1.52.79a29.61 29.61 0 0 1-3.1 4s1.72 3.3 1.59 4.16a14.48 14.48 0 0 0-.07 2.25s3.27-1.18 4.66-3.16 4.06-4.63 5.51-4.83-1.84-.97-1.84-.97zM546.1 0a50 50 0 1 0 50 50 50 50 0 0 0-50-50zm8.58 32.34c1.22.43 3 2 3 2.67s0 4.42-.07 4.75-1.36.14-1.82-.09a19.91 19.91 0 0 0-2.82-.9c-.43-.07-1.48-.46-1.22-.89s.76-.66.53-1.32-.86-1.78-.92-2a8.13 8.13 0 0 0-.44-1s2.54-1.65 3.76-1.22zm10.06 18.34c1.9 1.06 6.35 4.74 6.64 6.43s-.3 6.22-1.48 7.58-3.6 3.68-5.33 4.32a13.33 13.33 0 0 1-6.18.68c-1.44-.38-3.77-2-4.06-2.67a9.06 9.06 0 0 1-.47-1.82s2.33-1.61 3.43-1.57S559 65.2 559 65.2s2.88.34 3.72 0 3-1.1 3.55-2.29a5.34 5.34 0 0 0 .51-3.64c-.3-1.1-1.31-3.81-2.07-3.89a7 7 0 0 0-4.87.13c-2.24 1.06-3 2.07-3.26 2.79a4.13 4.13 0 0 0-.21 1.44l6.09-.72 1.31 1.48-4 1.27s-5 1.48-6.9 1.86a82.64 82.64 0 0 1-9.23.38c-1 0-5 .38-5.12-1a3.51 3.51 0 0 1 1.9-3.13c.93-.42 3.47-1.74 3.47-1.74s2.33-.47 1.86.13l-.47.59-.72 3s2.2-.25 3.6-.47 4.87-.93 4.87-.93-.17-.47-.59-1.82.68-3.13 1.31-4.06a18.57 18.57 0 0 1 2.69-2.58l-.21-1.52-.72 1-1.1-.53-1.06-.13a6 6 0 0 1-.59 1.27 15.88 15.88 0 0 1-3.81 1.9c-.93.21-4.44 2-5.12 2s-3.68 2.33-4.15 2.58-3 2.37-3.26 3.34a7.06 7.06 0 0 1-1.57 2.2 9.24 9.24 0 0 1-2.67.21c-.93-.17-1.31-1.31-1.31-1.31a4.77 4.77 0 0 0-.59 1.9 9.24 9.24 0 0 1-2.07 4 9.94 9.94 0 0 1-5.37 1.57c-2.75 0-3.81.13-6.64-1.44s-4-4.15-3-9.82a10.27 10.27 0 0 1 6.18-7.53 20.92 20.92 0 0 1 4.91-.08c1.52.34 2.5-.25 1.74 1.35a4.87 4.87 0 0 1-2.33 2.24s-3.17 1-3.85 2-2.5 3.34-1.52 4.7 1.65 3.22 2.5 3.6a6.79 6.79 0 0 0 3 .34c.89-.08 2.62-.34 3-.89s1.48-1.23 1.61-2.62.17-3.22-.34-3.85-1-.47-1-.47l-3.43 3.55a1.16 1.16 0 0 1-1.35 0 1.66 1.66 0 0 1 0-2.37c.63-.76 2.24-2.54 2.62-3.13a20.51 20.51 0 0 1 2.54-3 32 32 0 0 0 2.29-2.5c.55-.59 1.14-1.1 1.06-1.57s-1.65-.42-1.86-.93a10.08 10.08 0 0 1 .08-3 2.53 2.53 0 0 1 .8-1.65c.34-.17 1.1.3 1.52.63s1.23.34 1.27.42.8.8.8.8a14.15 14.15 0 0 1 1.06-2.2c.3-.3 1.44-1.06 1.78-.89s1.18.93 1.1 1.57.13 1.52-.08 2 1 1.1 1.82 1.14a3.82 3.82 0 0 1 1.65.63 25.84 25.84 0 0 0 2.84 1.57c.51.08 1.4 1.23 1.82 1.23a1 1 0 0 0 .72-.42l1.61.59 1.74.13s2.07-.08 2.24-.42-1.74-1.41-1.74-1.41l-.3-2.62a29.41 29.41 0 0 0-5.62-1.16h-4.66a1.08 1.08 0 0 1-.85-.59l-.68-2.2s-2.29-1.4-2.84-1.31-2.07.68-2.2 1.06-.42 1.23-.76 1.18-1.44-.72-1.4-1.57 0-2.84 1.69-3a14.51 14.51 0 0 1 4.06 0 17.54 17.54 0 0 1 3.22 2l4.15 1a5.69 5.69 0 0 0 6.77.08c.76-.51 2.16-1.65 2.92-1.44s1.44-.68 3 1.23a25.47 25.47 0 0 1 2 2.62 29.69 29.69 0 0 1 5.37-2.33 47.19 47.19 0 0 1 5.59-.8h3.34s-3.63 2-7.21 4.08c-3.26 1.89-6.48 3.84-6.88 4.38a4.63 4.63 0 0 0-.91 1.61s5.03-1.37 6.94-.32zm15.81-15.33c-1.81 1.38-1.94 1.91-2.64 2.08s-2.54.07-3.76.13a59 59 0 0 0-5.93.36c-.66.23-3.43-.07-4.28.56s-2.37 1.05-2.8 1.71a1.59 1.59 0 0 1-1.45.82c-.46 0-.43-.76-.43-.76s1.68-6.85 2.34-7.35 5.14.56 5.8.63a35.68 35.68 0 0 0 4.28.07c1.05-.1 2.8.36 3.89.13s3.49 0 5-1.25 2.5-.86 2.5-.86v2.44s-.71-.06-2.53 1.29zM58.08 40.21c-1.87-.67-3.22.1-4.46.1S52 42.7 52 42.7a7.91 7.91 0 0 0 1.3.88 18.74 18.74 0 0 0 3.16.62c1.3.26 2.65-1.09 3.22-1.61s.27-1.71-1.6-2.38zm11 19.13c.21-.46.63-1.23-.25-1.33a4.55 4.55 0 0 0-2 .46s-.39 1.65.53 1.65a1.83 1.83 0 0 0 1.76-.78zM50 0a50 50 0 1 0 50 50A50 50 0 0 0 50 0zM18.25 60.3c-1.75-.89-3.35-1.45-3.65-2.76a18.59 18.59 0 0 1-.33-3.1s-.33-3.87.78-5 2-3 2.86-3.78 6.15-2.69 8.32-3.47a39.59 39.59 0 0 0 8.15-4.85c.91-.91 2.34-2.86 3.12-2.86s4.59-.69 8.23-.69 4.51.61 7.19 0 15.43-5 15.43-5a9.26 9.26 0 0 1 2.86-.52c1.47 0-3.64 2.25-3.64 2.25l-8.41 3.24a10 10 0 0 0 4 1.23c5.25.71 3.88.56 5.62.12s5.72-1.82 6.76-1.82 4.94-.52 4.94-.52-5.29 1.56-6.41 2.08-3.81 1.56-3.81 1.56a17.32 17.32 0 0 1 2.6 2.17c.61.78 1.65 2 1.65 2s5.46-2 8-2.08 4.42-.09 4.42-.09-3.73 1-5.63 1.73a17.84 17.84 0 0 0-4.07 2.43 14.73 14.73 0 0 1 2.51 3.9c.52 1.65 1.73 4.59 1.73 6.76s-.17 2.95-1 4-2.93 1.37-3.53-.23a6.56 6.56 0 0 1-.69-3.73c.09-2 .17-4-.35-4.94s-4.59-.43-4.59-.43-3.38-1.3-3.81-3.29-1.39-2.43-.69-4 1-.69 1-.69 0-2.77-5-2.86-7.11-1.21-10.4-.69-6.5-.26-7 .43 1 2.77.61 4.51-.61 3.38-2 3.81A6 6 0 0 0 42 46s-.61 1 .43 1.21 4 .26 5.63.69l1.65.43s.35 1.21-.43 1.21-5.46-.35-6.24-.09-.61 4.77-.52 5.81.09 1.73.09 1.73l-2.43.43s-.61-4.25-.61-5.72-.26-4.94-.26-4.94l.09-.84a7.63 7.63 0 0 1-2.25.71c-.77 0-2.9-.24-3.47-.83a3.37 3.37 0 0 0-3.26-.83c-1.3.44-2.67.18-4.09.71s-4.8 1.75-5.16 2.52-2.7 1.84-2.87 3.76-.59 3.11-.24 4.24a6.05 6.05 0 0 0 2.76 2.67c.59.21.86 1.54.86 1.54a4.19 4.19 0 0 1-3.43-.11zm35.1 3.85s-3.9.26-5.87.56-4.16.17-6.39.43-6.73.34-6.73.34l-1-1.29s-.94.21-3 .64a5.39 5.39 0 0 1-4-.56c-.81-.43-1.11-1.2-1.71-1.84s-.9-.43-1.46-1.63-.27-2.8.81-4.88a26.78 26.78 0 0 1 2.36-1.29 14.76 14.76 0 0 1 2.64-.55 26.12 26.12 0 0 1 4.16.13 6.1 6.1 0 0 1 3.34 1.2c1.16.94 1 2.66 1.11 3a7.68 7.68 0 0 1-1 3.47c-.64 1-1 1.67-1 1.67s10.89-.13 13.12-.34a42.73 42.73 0 0 1 6.9.43zm3.26-3.39l-2.44.6h-4.84a61.08 61.08 0 0 1-8.33-.13l-.94-1.76a15.23 15.23 0 0 1 2.1-.9c1.33-.47 4.93 0 6.52 0a74 74 0 0 1 7.42.81c1.24.18.51 1.38.51 1.38zm-5.37-15.57l-1.92-1.82s-.26-3.73 3.16-4.25S55.85 38 58 38.6s4.2 1.4 4.15 2.9-.1 3.32-1.3 4a9.08 9.08 0 0 1-2.7 1.35c-.64.05-4.99.15-6.91-1.66zm9.45 13.13c-.21-1.93 1.2-3.43 1.67-4.41a27.47 27.47 0 0 1 3.56-1.07 23.27 23.27 0 0 1 3.77.13c.17 0 5.23.6 5.7 3.26s-.77 3.73-2 5.19-3.94 1.8-5.53 1.84a11.72 11.72 0 0 1-4-1.11s-2.96-1.9-3.18-3.83zm23.88 6.35c-.55 0-3 .2-4.42.25S76 65 74 65.22s-7.07.21-7.07.21l-.34-.86s3.16-.46 3.53-.58 1.53-.37 1.53-.37l6.63-.31s6.93 0 8-.43 3.37 1.17 3.37 1.17-4.53.62-5.09.62zM72.09 45c.52-.65.41-2.63-.48-3.15a9.16 9.16 0 0 0-2.52-.78s.22 2.28 1.11 3 1.37 1.63 1.89.93zM35 42.59l2.75.73c2.75.73 3.94-1 3.73-3S38.63 38 38.63 38s-3.22 1.3-4.2 2.44.57 2.15.57 2.15zm-5.1 15.9s-.73 1.16-.51 1.59 1.37.43 1.37.43l1-.69-.26-1.63z"/></svg>
